<?xml version="1.0" encoding="utf-8"?>
<!-- Svg Vector Icons : http://www.onlinewebfonts.com/icon -->
<!DOCTYPE svg PUBLIC "-//W3C//DTD SVG 1.1//EN" "http://www.w3.org/Graphics/SVG/1.1/DTD/svg11.dtd">
<svg version="1.1" xmlns="http://www.w3.org/2000/svg" xmlns:xlink="http://www.w3.org/1999/xlink" x="0px" y="0px" viewBox="0 0 256 256" enable-background="new 0 0 256 256" xml:space="preserve">
<metadata> Svg Vector Icons : http://www.onlinewebfonts.com/icon </metadata>
<g><g><path fill="#000000" d="M128,246c-15.9,0-31.4-3.1-45.9-9.3c-14.1-5.9-26.7-14.4-37.5-25.3c-10.8-10.8-19.3-23.5-25.3-37.5c-6.1-14.6-9.3-30-9.3-45.9s3.1-31.4,9.3-45.9c5.9-14,14.4-26.7,25.3-37.5C55.4,33.7,68,25.2,82.1,19.3c14.6-6.1,30-9.3,45.9-9.3s31.4,3.1,45.9,9.3c14,5.9,26.7,14.4,37.5,25.3c10.8,10.8,19.3,23.5,25.3,37.5c6.2,14.5,9.3,30,9.3,45.9s-3.1,31.4-9.3,45.9c-5.9,14-14.4,26.7-25.3,37.5c-10.8,10.8-23.5,19.3-37.5,25.3C159.4,242.9,143.9,246,128,246L128,246z M128,16.2c-29.9,0-57.9,11.6-79.1,32.8S16.2,98.1,16.2,128s11.6,57.9,32.8,79.1c21.1,21.1,49.2,32.8,79.1,32.8s57.9-11.6,79.1-32.8c21.1-21.1,32.8-49.2,32.8-79.1s-11.6-57.9-32.8-79.1C185.9,27.8,157.9,16.2,128,16.2L128,16.2z"/><path fill="#000000" d="M204.6,123.9H64.9l68.6-67.8l-5.5-5.2L49.8,128l78.2,77.4l5.2-5.9L64.8,132h139.8L204.6,123.9z"/></g></g>
</svg>